<?xml version="1.0" encoding="UTF-8" standalone="no"?>
<svg
   xmlns:dc="http://purl.org/dc/elements/1.1/"
   xmlns:cc="http://creativecommons.org/ns#"
   xmlns:rdf="http://www.w3.org/1999/02/22-rdf-syntax-ns#"
   xmlns:svg="http://www.w3.org/2000/svg"
   xmlns="http://www.w3.org/2000/svg"
   xmlns:xlink="http://www.w3.org/1999/xlink"
   xmlns:sodipodi="http://sodipodi.sourceforge.net/DTD/sodipodi-0.dtd"
   xmlns:inkscape="http://www.inkscape.org/namespaces/inkscape"
   width="700"
   height="440"
   viewBox="0 0 185.20833 116.41667"
   version="1.1"
   id="svg8"
   inkscape:version="1.0 (4035a4f, 2020-05-01)"
   sodipodi:docname="isometric.svg"
   inkscape:export-filename="./isometric.png"
   inkscape:export-xdpi="144"
   inkscape:export-ydpi="144">
  <defs
     id="defs2" />
  <sodipodi:namedview
     id="base"
     pagecolor="#ffffff"
     bordercolor="#666666"
     borderopacity="1.0"
     inkscape:pageopacity="0.0"
     inkscape:pageshadow="2"
     inkscape:zoom="0.81301866"
     inkscape:cx="411.6974"
     inkscape:cy="145.2567"
     inkscape:document-units="px"
     inkscape:current-layer="layer2"
     inkscape:document-rotation="0"
     showgrid="false"
     units="px"
     inkscape:window-width="1392"
     inkscape:window-height="855"
     inkscape:window-x="0"
     inkscape:window-y="23"
     inkscape:window-maximized="0">
    <inkscape:grid
       type="xygrid"
       id="grid137452" />
  </sodipodi:namedview>
  <metadata
     id="metadata5">
    <rdf:RDF>
      <cc:Work
         rdf:about="">
        <dc:format>image/svg+xml</dc:format>
        <dc:type
           rdf:resource="http://purl.org/dc/dcmitype/StillImage" />
        <dc:title />
      </cc:Work>
    </rdf:RDF>
  </metadata>
  <g
     inkscape:label="original"
     inkscape:groupmode="layer"
     id="layer1"
     style="display:none">
    <g
       inkscape:groupmode="layer"
       id="layer5"
       inkscape:label="phone"
       style="display:inline;mix-blend-mode:normal">
      <g
         style="display:inline"
         id="g2747"
         transform="translate(-7.4088501,-11.998751)">
        <path
           style="fill:#f0f0f0;fill-opacity:1;fill-rule:nonzero;stroke:none;stroke-width:1;stroke-miterlimit:4;stroke-dasharray:none;stroke-opacity:1"
           d="m 61.859375,57.408203 h 23.78125 c 2.88,0 5.241424,2.298393 5.357422,5.150391 0.0042,0.07332 0.01172,0.145389 0.01172,0.21875 v 0.933594 c 0.118677,6.497332 5.460373,11.779296 11.984373,11.779296 h 101.125 c 6.52533,0 11.86571,-5.281964 11.98438,-11.779296 v -0.933594 c 0,-0.07332 0.009,-0.14539 0.0117,-0.21875 0.116,-2.851998 2.47805,-5.150391 5.35938,-5.150391 h 23.7793 c 11.66933,0 21.21875,9.548083 21.21875,21.21875 V 525.43359 c 0,11.66937 -9.54942,21.21875 -21.21875,21.21875 H 153.55664 61.859375 c -11.670667,0 -21.21875,-9.54938 -21.21875,-21.21875 V 78.626953 c 0,-11.670667 9.548083,-21.21875 21.21875,-21.21875 z"
           transform="scale(0.26458333)"
           id="path137355" />
        <path
           id="path2981"
           style="fill:#606060;fill-opacity:1;fill-rule:nonzero;stroke:#000000;stroke-width:1;stroke-miterlimit:4;stroke-dasharray:none;stroke-opacity:1"
           d="m 63.349609,45.849609 c -19.214664,0 -34.847656,15.632988 -34.847656,34.847657 V 523.18555 c 0,19.21466 15.632992,34.84765 34.847656,34.84765 H 243.30859 c 19.21467,0 34.84766,-15.63299 34.84766,-34.84765 V 80.697266 c 0,-19.214669 -15.63299,-34.847657 -34.84766,-34.847657 z m -1.490234,11.558594 h 23.78125 c 2.88,0 5.241424,2.298393 5.357422,5.150391 0.0042,0.07332 0.01172,0.145389 0.01172,0.21875 v 0.933594 c 0.118677,6.497332 5.460373,11.779296 11.984373,11.779296 h 101.125 c 6.52533,0 11.86571,-5.281964 11.98438,-11.779296 v -0.933594 c 0,-0.07332 0.009,-0.14539 0.0117,-0.21875 0.116,-2.851998 2.47805,-5.150391 5.35938,-5.150391 h 23.7793 c 11.66933,0 21.21875,9.548083 21.21875,21.21875 V 525.43359 c 0,11.66937 -9.54942,21.21875 -21.21875,21.21875 H 153.55664 61.859375 c -11.670667,0 -21.21875,-9.54938 -21.21875,-21.21875 V 78.626953 c 0,-11.670667 9.548083,-21.21875 21.21875,-21.21875 z"
           transform="scale(0.26458333)" />
        <path
           id="path3087"
           style="fill:#000000;fill-opacity:1;fill-rule:nonzero;stroke:none;stroke-width:0.352778"
           d="m 67.111524,19.744836 h -2.470856 c -0.136524,0 -0.248002,-0.111478 -0.248002,-0.248003 V 18.71543 c 0,-0.136525 0.111478,-0.248002 0.248002,-0.248002 h 2.470856 c 0.136525,0 0.248003,0.111477 0.248003,0.248002 v 0.781403 c 0,0.136525 -0.111478,0.248003 -0.248003,0.248003 m 0.04893,-1.544283 h -2.569986 c -0.255764,0 -0.465314,0.209197 -0.465314,0.464961 v 0.881239 c 0,0.255764 0.20955,0.464961 0.465314,0.464961 h 2.569986 c 0.255764,0 0.464961,-0.209197 0.464961,-0.464961 v -0.881239 c 0,-0.255764 -0.209197,-0.464961 -0.464961,-0.464961 m 0,0.154869 c 0.170744,0 0.310092,0.138995 0.310092,0.310092 v 0.881239 c 0,0.170744 -0.139348,0.309739 -0.310092,0.309739 h -2.569986 c -0.171097,0 -0.310092,-0.138995 -0.310092,-0.309739 v -0.881239 c 0,-0.171097 0.138995,-0.310092 0.310092,-0.310092 h 2.569986 m 0.71755,1.009684 H 67.75559 v -0.517525 h 0.122414 z m 0.03073,-0.129469 h -0.06138 c -0.04374,0 -0.07937,-0.03598 -0.07937,-0.07973 v -0.09948 c 0,-0.04374 0.03563,-0.07973 0.07937,-0.07973 h 0.06138 c 0.04374,0 0.07973,0.03598 0.07973,0.07973 v 0.09948 c 0,0.04374 -0.03598,0.07973 -0.07973,0.07973 m -7.908221,-0.987883 h -0.342547 c -0.04269,0 -0.07726,0.03457 -0.07726,0.07761 v 1.551164 c 0,0.04269 0.03457,0.07761 0.07726,0.07761 h 0.342547 c 0.04269,0 0.07761,-0.03492 0.07761,-0.07761 v -1.551164 c 0,-0.04304 -0.03493,-0.07761 -0.07761,-0.07761 m 0,1.628775 h -0.342547 v -1.551164 h 0.342547 z m -0.34244,0.03884 c -0.02152,0 -0.03881,-0.01729 -0.03881,-0.03881 v -1.551163 c 0,-0.02152 0.01729,-0.03881 0.03881,-0.03881 h 0.342547 c 0.02117,0 0.03845,0.01729 0.03845,0.03881 v 1.551163 c 0,0.02152 -0.01729,0.03881 -0.03845,0.03881 z m -0.417195,-1.281078 h -0.342547 c -0.04269,0 -0.07726,0.03493 -0.07726,0.07761 v 1.16452 c 0,0.04304 0.03457,0.07761 0.07726,0.07761 h 0.342547 c 0.04269,0 0.07761,-0.03457 0.07761,-0.07761 v -1.16452 c 0,-0.04269 -0.03492,-0.07761 -0.07761,-0.07761 m 0,1.242131 H 58.898329 V 18.71155 h 0.342547 z m -0.342442,0.03895 c -0.02152,0 -0.03845,-0.01729 -0.03845,-0.03881 V 18.71169 c 0,-0.02117 0.01693,-0.03845 0.03845,-0.03845 h 0.342547 c 0.02117,0 0.03881,0.01729 0.03881,0.03845 v 1.164872 c 0,0.02152 -0.01764,0.03881 -0.03881,0.03881 z m -0.376555,-0.886777 h -0.342547 c -0.04269,0 -0.07726,0.03492 -0.07726,0.07761 v 0.770467 c 0,0.04269 0.03457,0.07761 0.07726,0.07761 h 0.342547 c 0.04269,0 0.07761,-0.03492 0.07761,-0.07761 v -0.770467 c 0,-0.04269 -0.03493,-0.07761 -0.07761,-0.07761 m 0,0.848078 h -0.342547 v -0.770467 h 0.342547 z m -0.34244,0.0387 c -0.02152,0 -0.03845,-0.01729 -0.03845,-0.03881 v -0.770466 c 0,-0.02117 0.01693,-0.03845 0.03845,-0.03845 h 0.342547 c 0.02117,0 0.03881,0.01729 0.03881,0.03845 v 0.770466 c 0,0.02152 -0.01764,0.03881 -0.03881,0.03881 z M 57.78807,19.281818 h -0.342547 c -0.04269,0 -0.07726,0.03457 -0.07726,0.07726 V 19.8766 c 0,0.04269 0.03457,0.07761 0.07726,0.07761 h 0.342547 c 0.04269,0 0.07761,-0.03492 0.07761,-0.07761 v -0.517525 c 0,-0.04269 -0.03493,-0.07726 -0.07761,-0.07726 m 0,0.594783 h -0.342547 v -0.517525 h 0.342547 z m -0.342443,0.03877 c -0.02152,0 -0.03881,-0.01729 -0.03881,-0.03881 v -0.517172 c 0,-0.02152 0.01729,-0.0388 0.03881,-0.0388 h 0.342547 c 0.02117,0 0.03845,0.01729 0.03845,0.0388 v 0.517172 c 0,0.02152 -0.01729,0.03881 -0.03845,0.03881 z m 4.652256,-0.377439 c -0.108656,0 -0.210961,0.04269 -0.287867,0.119944 -0.02999,0.02999 -0.03034,0.07832 -7.05e-4,0.108656 l 0.232833,0.240594 c 0.01482,0.01517 0.03457,0.02364 0.05574,0.02364 0.02117,0 0.04092,-0.0085 0.05539,-0.02364 l 0.233186,-0.240594 c 0.02963,-0.03034 0.02928,-0.07867 -7.05e-4,-0.108656 -0.07691,-0.07726 -0.179211,-0.119944 -0.287867,-0.119944 m -0.0056,-0.681567 c -0.284692,0 -0.552098,0.1143 -0.752475,0.321381 -0.02928,0.03034 -0.02928,0.07832 3.52e-4,0.108303 l 0.206728,0.209902 c 0.01446,0.01482 0.03457,0.02328 0.05539,0.02328 h 3.53e-4 c 0.02046,0 0.04057,-0.0088 0.05503,-0.02364 0.116064,-0.119592 0.270581,-0.185561 0.434975,-0.185561 0.164748,0 0.320675,0.06632 0.438503,0.185913 v 0 c 0.01517,0.01623 0.03598,0.02716 0.05891,0.02716 0.02081,0 0.04092,-0.0085 0.05539,-0.02364 l 0.203553,-0.210255 c 0.01411,-0.01446 0.02187,-0.03351 0.02187,-0.05362 0,-0.02187 -0.0099,-0.04269 -0.0254,-0.05785 -0.20073,-0.207081 -0.468489,-0.321381 -0.75318,-0.321381 m 0,-0.674864 c -0.459317,0 -0.891117,0.184503 -1.21532,0.518937 -0.02928,0.03034 -0.02928,0.07867 3.53e-4,0.108655 l 0.207433,0.20955 c 0.01446,0.01482 0.03457,0.02328 0.05503,0.02328 0.02117,0 0.04092,-0.0085 0.05539,-0.02364 0.239183,-0.244827 0.557389,-0.379589 0.895702,-0.379589 0.337256,0 0.654756,0.133703 0.895703,0.376767 0.0081,0.01164 0.0194,0.02117 0.03281,0.02646 0.01023,0.0042 0.02081,0.0064 0.0314,0.0064 0.01976,0 0.03916,-0.0074 0.05362,-0.02222 l 0.206728,-0.213783 c 0.02928,-0.03034 0.02928,-0.07796 0,-0.10795 -0.32743,-0.338354 -0.75923,-0.522857 -1.218899,-0.522857 m 0.0056,1.434042 c 0.08396,0 0.168628,0.03246 0.233186,0.09737 l -0.233186,0.240241 -0.233186,-0.240241 c 0.06456,-0.06491 0.149225,-0.09737 0.233186,-0.09737 m -0.0056,-0.681567 c 0.252588,0 0.505177,0.09913 0.697441,0.297745 0,0 0.0039,0 0.0039,0.0039 l -0.203553,0.209903 c 0,0 -0.0039,0 -0.0039,-0.0039 -0.136877,-0.139348 -0.315383,-0.208845 -0.493536,-0.208845 -0.178152,0 -0.355247,0.0695 -0.490361,0.208845 L 61.395148,19.23172 C 61.587412,19.033106 61.84,18.933975 62.092237,18.933975 m 0,-0.674863 c 0.420158,0 0.839611,0.1651 1.15958,0.4953 l 0.0039,0.0039 -0.207434,0.213783 v -0.0039 c -0.264936,-0.271639 -0.611364,-0.407106 -0.957439,-0.407106 -0.344663,0 -0.688975,0.134409 -0.951088,0.403225 l -0.207434,-0.209902 c 0.320322,-0.3302 0.740128,-0.4953 1.159934,-0.4953 m 0.956115,0.751735 c -0.0049,0 -0.0095,-7.06e-4 -0.01446,-0.0028 -0.0095,-0.0042 -0.01729,-0.01164 -0.02117,-0.02046 -0.248002,-0.25012 -0.574675,-0.387703 -0.921808,-0.387703 -0.34925,0 -0.677333,0.138994 -0.923572,0.391583 -0.0074,0.0074 -0.01729,0.01164 -0.02752,0.01164 -0.01023,0 -0.02046,-0.0042 -0.02752,-0.01164 l -0.207434,-0.20955 c -0.01482,-0.01517 -0.01482,-0.03916 -3.53e-4,-0.05433 0.316795,-0.327025 0.73907,-0.507294 1.187803,-0.507294 0.449086,0 0.870656,0.180269 1.18745,0.507294 0.01482,0.01482 0.01835,0.04269 0.0039,0.0575 l -0.207434,0.213784 c -0.0071,0.0078 -0.01764,0.01199 -0.02787,0.01199 m -0.458611,0.473428 c -0.01164,0 -0.02328,-0.0064 -0.0314,-0.01552 -0.124884,-0.127353 -0.290336,-0.197556 -0.465667,-0.197556 -0.174978,0 -0.339372,0.0702 -0.462844,0.197556 -0.0074,0.0074 -0.01729,0.01164 -0.02787,0.01164 -0.01058,0 -0.02011,-0.0039 -0.02752,-0.01129 l -0.20708,-0.210255 c -0.01482,-0.01482 -0.01482,-0.03916 -3.53e-4,-0.05433 0.193675,-0.199319 0.451203,-0.309386 0.725311,-0.309386 0.274109,0 0.531636,0.110067 0.725311,0.309386 0.0085,0.0085 0.01446,0.0194 0.01446,0.03104 0,0.01023 -0.0039,0.0194 -0.01129,0.02681 l -0.2032,0.210255 c -0.0074,0.0074 -0.01764,0.01164 -0.02787,0.01164 m -0.491772,0.507647 c -0.01058,0 -0.02081,-0.0042 -0.02787,-0.01164 l -0.233186,-0.240594 c -0.01482,-0.01517 -0.01482,-0.03916 3.53e-4,-0.05433 0.0702,-0.0702 0.162278,-0.108655 0.260703,-0.108655 0.09807,0 0.1905,0.03845 0.26035,0.108655 0.01517,0.01517 0.01517,0.03916 7.05e-4,0.05433 l -0.233186,0.240594 c -0.0074,0.0074 -0.01764,0.01164 -0.02787,0.01164 m -41.581033,0.02522 v -1.437922 h -0.0099 c -0.06033,0.03457 -0.309739,0.198614 -0.390172,0.255764 v -0.288573 c 0.08643,-0.06385 0.320675,-0.217663 0.409928,-0.265994 h 0.285044 v 1.736725 z m -1.076572,-0.586529 v -0.909814 h -0.0099 c -0.18168,0.285045 -0.370416,0.604308 -0.53093,0.907345 v 0.0025 z m 0.281517,-1.150408 v 1.150408 h 0.209902 v 0.253294 h -0.209902 v 0.333375 H 19.440382 V 19.68391 h -0.815975 v -0.252236 c 0.200025,-0.384175 0.435681,-0.777169 0.671689,-1.151466 z m -1.533808,1.398482 c 0.09596,0 0.176389,0.08255 0.176389,0.183092 0,0.09913 -0.08043,0.182033 -0.176389,0.182033 -0.09772,0 -0.1778,-0.0829 -0.1778,-0.182033 0,-0.100542 0.08008,-0.183092 0.1778,-0.183092 m 0,-0.875242 c 0.09596,0 0.176389,0.08149 0.176389,0.182034 0,0.100189 -0.08043,0.183091 -0.176389,0.183091 -0.09772,0 -0.1778,-0.0829 -0.1778,-0.183091 0,-0.100542 0.08008,-0.182034 0.1778,-0.182034 M 17.128699,18.49424 c -0.164394,0 -0.317147,0.115711 -0.317147,0.343253 0,0.225425 0.142875,0.341136 0.310797,0.341136 0.175331,0 0.322439,-0.140053 0.322439,-0.337256 0,-0.227541 -0.140758,-0.347133 -0.316089,-0.347133 m -0.300214,1.085144 c 0.01376,0.108303 0.113947,0.222603 0.285397,0.222603 0.252942,0 0.370417,-0.278694 0.365125,-0.63888 h -0.0134 c -0.04304,0.127352 -0.181681,0.252236 -0.415925,0.252236 -0.272697,0 -0.524581,-0.197203 -0.524581,-0.570089 0,-0.380295 0.280106,-0.596547 0.592667,-0.596547 0.3937,0 0.644172,0.265994 0.644172,0.875241 0,0.576439 -0.240947,0.924984 -0.655461,0.924984 -0.369006,0 -0.549275,-0.257175 -0.561622,-0.469548 z" />
      </g>
    </g>
    <g
       inkscape:groupmode="layer"
       id="layer3"
       inkscape:label="glass"
       style="display:inline;mix-blend-mode:normal">
      <rect
         style="display:inline;fill:#ffffff;fill-opacity:0.75;stroke:#000000;stroke-width:0.264583;stroke-miterlimit:4;stroke-dasharray:2.11667, 2.11667;stroke-dashoffset:0;stroke-opacity:1"
         id="rect137357"
         width="59.62326"
         height="129.18515"
         x="3.4350851"
         y="3.3109896" />
    </g>
  </g>
  <g
     inkscape:groupmode="layer"
     id="layer2"
     inkscape:label="transform"
     style="display:inline">
    <g
       id="g137446"
       transform="translate(127.77334,9.6223932)">
      <path
         sodipodi:nodetypes="ccccsccccc"
         transform="scale(0.26458333)"
         d="m -455.42188,261.09766 v 20.73046 h 0.0977 c -0.24964,5.80227 4.0294,11.64459 12.86524,16.0625 l 160.96093,80.48047 c 17.18612,8.59306 45.15178,8.59306 62.33789,0 l 395.7734,-197.88671 c 9.37778,-4.6889 13.62591,-10.98206 12.76953,-17.12891 v -17.87305 z"
         style="mix-blend-mode:normal;fill:#404040;fill-opacity:1;fill-rule:nonzero;stroke:#000000;stroke-width:0.894425;stroke-miterlimit:4;stroke-dasharray:none;stroke-opacity:1"
         id="use137430" />
      <use
         height="100%"
         width="100%"
         transform="matrix(0.894427,0.44721399,-0.894427,0.44721399,-4.105331,8.6793505)"
         id="use2742"
         xlink:href="#g2747"
         y="0"
         x="0" />
      <use
         height="100%"
         width="100%"
         transform="matrix(0.894427,0.44721399,-0.894427,0.44721399,-4.105331,-7.7248166)"
         id="use137359"
         xlink:href="#rect137357"
         y="0"
         x="0"
         style="display:inline" />
    </g>
    <g
       style="font-style:normal;font-weight:normal;font-size:7.05556px;line-height:1.25;font-family:sans-serif;fill:#000000;fill-opacity:1;stroke:none;stroke-width:0.264583"
       id="text137450"
       aria-label="Airship">
      <path
         id="path31"
         style="font-style:normal;font-variant:normal;font-weight:normal;font-stretch:normal;font-size:7.05556px;font-family:'Fira Code';-inkscape-font-specification:'Fira Code';stroke-width:0.264583"
         d="M 10.516077,28.440819 10.118071,27.170818 H 8.146132 L 7.7481261,28.440819 H 7.1294077 l 1.6209697,-4.982311 h 0.8032484 l 1.6209692,4.982311 z M 9.1375287,23.98677 8.3089526,26.649792 H 9.95525 Z" />
      <path
         id="path33"
         style="font-style:normal;font-variant:normal;font-weight:normal;font-stretch:normal;font-size:7.05556px;font-family:'Fira Code';-inkscape-font-specification:'Fira Code';stroke-width:0.264583"
         d="m 13.492825,22.847026 q 0.199003,0 0.322023,0.12302 0.12302,0.119402 0.12302,0.300314 0,0.188148 -0.12302,0.311168 -0.12302,0.12302 -0.322023,0.12302 -0.191767,0 -0.314787,-0.12302 -0.12302,-0.126638 -0.12302,-0.311168 0,-0.180912 0.12302,-0.300314 0.12302,-0.12302 0.314787,-0.12302 z m -1.262765,1.78379 h 1.747608 v 3.328777 h 1.074616 v 0.481226 h -2.858406 v -0.481226 h 1.175927 V 25.112042 H 12.23006 Z" />
      <path
         id="path35"
         style="font-style:normal;font-variant:normal;font-weight:normal;font-stretch:normal;font-size:7.05556px;font-family:'Fira Code';-inkscape-font-specification:'Fira Code';stroke-width:0.264583"
         d="m 18.962538,24.547597 q 0.148347,0 0.271367,0.02171 0.12302,0.01809 0.26775,0.06151 l -0.08684,1.288092 H 18.9155 v -0.810485 h -0.03256 q -0.441424,0 -0.752593,0.311169 -0.311168,0.311168 -0.502935,0.940741 v 1.613733 h 0.774303 v 0.466753 h -1.975557 v -0.466753 h 0.593391 v -2.876497 h -0.593391 v -0.466753 h 1.056525 l 0.112165,0.900941 q 0.231567,-0.495698 0.549972,-0.73812 0.322023,-0.24604 0.817722,-0.24604 z" />
      <path
         id="path37"
         style="font-style:normal;font-variant:normal;font-weight:normal;font-stretch:normal;font-size:7.05556px;font-family:'Fira Code';-inkscape-font-specification:'Fira Code';stroke-width:0.264583"
         d="m 22.026123,28.021103 q 0.437807,0 0.691084,-0.16282 0.256894,-0.162821 0.256894,-0.441425 0,-0.188148 -0.06875,-0.30755 -0.06513,-0.12302 -0.264131,-0.224331 -0.195385,-0.10131 -0.589773,-0.199003 -0.437806,-0.108547 -0.716411,-0.235185 -0.274986,-0.130256 -0.43057,-0.336496 -0.151966,-0.206239 -0.151966,-0.524644 0,-0.314787 0.180912,-0.549972 0.180912,-0.235185 0.506553,-0.361824 0.32926,-0.126638 0.75983,-0.126638 0.43057,0 0.774302,0.115784 0.347351,0.112165 0.607864,0.303932 l -0.26775,0.412478 q -0.238803,-0.16282 -0.502934,-0.249658 -0.260513,-0.09046 -0.604246,-0.09046 -0.43057,0 -0.629573,0.133875 -0.195385,0.130256 -0.195385,0.365442 0,0.170057 0.09046,0.278604 0.09407,0.108547 0.300314,0.195385 0.209858,0.08322 0.622337,0.195384 0.412478,0.112166 0.67661,0.249659 0.264131,0.137493 0.412479,0.361823 0.148347,0.220713 0.148347,0.564445 0,0.387151 -0.22433,0.644046 -0.224331,0.253277 -0.589773,0.372678 -0.361823,0.119402 -0.792394,0.119402 -0.897322,0 -1.490713,-0.513789 l 0.347351,-0.401624 q 0.231567,0.195384 0.524644,0.303931 0.293077,0.108547 0.618718,0.108547 z" />
      <path
         id="path39"
         style="font-style:normal;font-variant:normal;font-weight:normal;font-stretch:normal;font-size:7.05556px;font-family:'Fira Code';-inkscape-font-specification:'Fira Code';stroke-width:0.264583"
         d="m 25.679482,25.151842 q 0.220712,-0.289459 0.542735,-0.445043 0.325641,-0.155584 0.672992,-0.155584 0.546354,0 0.806867,0.289459 0.264131,0.289459 0.264131,0.832194 v 2.767951 h -0.607864 v -2.753478 q 0,-0.340114 -0.159202,-0.499316 -0.159202,-0.159203 -0.499317,-0.159203 -0.300313,0 -0.575299,0.191767 -0.274986,0.188148 -0.445043,0.445043 v 2.775187 h -0.607864 v -5.336898 l 0.607864,-0.06513 z" />
      <path
         id="path41"
         style="font-style:normal;font-variant:normal;font-weight:normal;font-stretch:normal;font-size:7.05556px;font-family:'Fira Code';-inkscape-font-specification:'Fira Code';stroke-width:0.264583"
         d="m 30.856118,22.847026 q 0.199003,0 0.322023,0.12302 0.12302,0.119402 0.12302,0.300314 0,0.188148 -0.12302,0.311168 -0.12302,0.12302 -0.322023,0.12302 -0.191766,0 -0.314786,-0.12302 -0.12302,-0.126638 -0.12302,-0.311168 0,-0.180912 0.12302,-0.300314 0.12302,-0.12302 0.314786,-0.12302 z m -1.262764,1.78379 h 1.747608 v 3.328777 h 1.074616 v 0.481226 h -2.858406 v -0.481226 h 1.175926 v -2.847551 h -1.139744 z" />
      <path
         id="path43"
         style="font-style:normal;font-variant:normal;font-weight:normal;font-stretch:normal;font-size:7.05556px;font-family:'Fira Code';-inkscape-font-specification:'Fira Code';stroke-width:0.264583"
         d="m 35.457454,24.551215 q 0.730883,0 1.052906,0.517408 0.325642,0.517408 0.325642,1.465385 0,0.589773 -0.162821,1.038434 -0.162821,0.445043 -0.495698,0.69832 -0.32926,0.253276 -0.810485,0.253276 -0.629573,0 -1.00587,-0.441425 v 1.816355 l -0.607864,0.07598 v -5.344135 h 0.517408 l 0.05066,0.531881 q 0.209857,-0.296695 0.499316,-0.452279 0.293077,-0.159203 0.63681,-0.159203 z m -0.14473,0.488462 q -0.293077,0 -0.535499,0.173675 -0.238803,0.173676 -0.416097,0.437807 v 1.888719 q 0.151966,0.224331 0.376297,0.350969 0.227949,0.126638 0.495698,0.126638 0.477607,0 0.712792,-0.365442 0.238804,-0.365441 0.238804,-1.121653 0,-0.752593 -0.213476,-1.121653 -0.213476,-0.36906 -0.658519,-0.36906 z" />
    </g>
    <path
       style="fill:none;stroke:#000000;stroke-width:0.264583px;stroke-linecap:butt;stroke-linejoin:miter;stroke-opacity:1"
       d="m 39.6875,26.458333 23.8125,0 5.291666,5.291667"
       id="path137454"
       sodipodi:nodetypes="ccc" />
  </g>
</svg>
